<?xml version="1.0" standalone="no"?>
<!DOCTYPE svg PUBLIC "-//W3C//DTD SVG 20010904//EN"
 "http://www.w3.org/TR/2001/REC-SVG-20010904/DTD/svg10.dtd">
<svg version="1.0" xmlns="http://www.w3.org/2000/svg"
 width="500.000000pt" height="500.000000pt" viewBox="0 0 500.000000 500.000000"
 preserveAspectRatio="xMidYMid meet">

<g transform="translate(0.000000,500.000000) scale(0.100000,-0.100000)"
fill="#000000" stroke="none">
<path d="M3396 3720 c-73 -556 -308 -1035 -696 -1420 -190 -190 -394 -333
-651 -459 -162 -79 -166 -73 61 -91 133 -11 205 -9 390 11 375 41 673 203 843
457 82 122 128 239 174 442 25 107 27 131 27 350 -1 213 -3 247 -26 361 -27
128 -77 312 -101 371 l-14 33 -7 -55z"/>
<path d="M1550 3640 c-11 -11 -20 -33 -20 -50 0 -17 9 -39 20 -50 11 -11 33
-20 50 -20 17 0 39 9 50 20 11 11 20 33 20 50 0 17 -9 39 -20 50 -11 11 -33
20 -50 20 -17 0 -39 -9 -50 -20z"/>
</g>
</svg>
